<ttFont>
<head>
    <!-- Most of this table will be recalculated by the compiler -->
    <tableVersion value="1.0"/>
    <fontRevision value="1.0"/>
    <checkSumAdjustment value="0x4d4762f5"/>
    <magicNumber value="0x5f0f3cf5"/>
    <flags value="00000000 00001011"/>
    <unitsPerEm value="1000"/>
    <created value="Thu Jun 18 16:59:57 2015"/>
    <modified value="Thu Jun 18 17:33:44 2015"/>
    <xMin value="-2"/>
    <yMin value="-215"/>
    <xMax value="760"/>
    <yMax value="670"/>
    <macStyle value="00000000 00000000"/>
    <lowestRecPPEM value="8"/>
    <fontDirectionHint value="2"/>
    <indexToLocFormat value="0"/>
    <glyphDataFormat value="0"/>
  </head>
          <CharString index="0">
            -36 29 -29 36 35 29 29 36 36 -29 29 -35 -36 -29 -29 -36 vhcurveto
            return
          </CharString>
        <CharString name=".notdef">
          -70 0 50 433 50 hstem
          50 50 300 50 vstem
          50 hmoveto
          400 533 -400 hlineto
          50 -483 rmoveto
          433 300 -433 vlineto
          endchar
        </CharString>
        <CharString name="si_A">
          3 -4 30 174 29 58 22 83 41 hstemhm
          33 98 184 31 12 30 -4 4 33 24 16 66 hintmask 1111110111000000
          428 200 rmoveto
          51 48 28 53 hvcurveto
          0 74 -82 14 0 34 0 11 5 4 7 4 rrcurveto
          -19 -4 -16 -14 rlineto
          -1 -2 0 -3 0 -2 0 -26 13 -9 11 -17 11 -17 5 -17 0 -24 0 -37 -21 -21 -29 0 -7 0 -11 1 -9 5 rrcurveto
          -28 vlineto
          16 -5 15 -2 13 0 rrcurveto
          35 224 rmoveto
          -24 11 rlineto
          -20 -5 -19 -12 -15 -17 rrcurveto
          hintmask 1111111011000000
          -18 -22 -9 -29 0 -37 rrcurveto
          -528 30 529 vlineto
          0 37 4 42 71 31 rrcurveto
          60 -373 rmoveto
          33 vlineto
          -43 -33 -68 -25 -106 0 rrcurveto
          -124 -51 62 76 36 17 87 118 hvcurveto
          80 hlineto
          0 1 0 1 0 1 rrcurveto
          92 -51 51 -84 -57 -48 -23 -41 -24 19 -15 22 vhcurveto
          25 0 12 16 6 12 7 16 8 18 36 0 46 0 27 -40 1 -43 rrcurveto
          -113 hlineto
          -108 -61 -61 -88 -98 85 -66 164 hvcurveto
          104 0 86 21 51 34 rrcurveto
          endchar
        </CharString>
        <CharString name="si_Ca">
          2 88 189 26 91 38 121 25 hstemhm
          47 43 -24 76 128 33 216 39 hintmask 11110111
          302 279 rmoveto
          1 3 0 7 0 3 rrcurveto
          86 -44 56 -88 -55 -50 -26 -47 -25 20 -11 17 vhcurveto
          24 0 9 13 7 19 5 16 9 23 43 0 37 0 33 -33 0 -53 0 -2 0 -2 0 -2 rrcurveto
          -17 hlineto
          -37 0 -41 -12 -34 -12 -26 -5 -18 -11 -17 -14 rrcurveto
          hintmask 11111011
          -23 -20 -10 -32 0 -31 rrcurveto
          -119 110 -46 121 183 97 114 160 169 -111 134 -161 vhcurveto
          -98 0 -72 -37 -49 -70 rrcurveto
          33 hlineto
          44 54 63 29 79 0 rrcurveto
          135 98 -111 -135 -135 -85 -84 -153 -90 -101 21 77 hvcurveto
          0 24 12 24 27 17 25 15 37 11 48 0 rrcurveto
          -108 hmoveto
          167 0 -30 25 -271 0 0 -32 rlineto
          16 2 47 4 71 1 rrcurveto
          endchar
        </CharString>
        <CharString name="si_DIi">
          77 0 88 199 28 75 42 39 24 107 68 hstemhm
          46 43 -12 47 175 28 55 33 109 37 -3 40 hintmask 1111110110100000
          260 315 rmoveto
          -245 -28 111 hlineto
          -51 -22 -29 -49 0 -58 0 -85 65 -73 87 0 48 0 36 20 31 39 31 -38 25 -21 62 0 121 0 46 141 0 114 0 111 -45 72 -71 33 rrcurveto
          hintmask 1111101111000000
          46 1 33 37 0 41 0 49 -32 31 -49 18 -46 16 -61 6 -66 0 -139 0 -91 -31 0 -78 0 -101 149 16 98 -5 rrcurveto
          hintmask 1111110110100000
          130 -7 104 -24 0 -168 rrcurveto
          -84 -33 -100 -100 -51 -48 23 47 vhcurveto
          30 -27 -30 vlineto
          -49 -52 -21 -49 -70 -39 42 54 51 46 52 89 vhcurveto
          71 hlineto
          84 -47 61 -83 -42 -47 -17 -41 -22 17 -13 20 vhcurveto
          15 0 13 4 11 19 14 25 15 3 17 0 rrcurveto
          29 0 31 -32 2 -43 rrcurveto
          155 230 rmoveto
          28 23 23 31 vhcurveto
          hintmask 1111100111000000
          31 24 -22 -29 -31 -24 -19 -30 -31 -24 22 28 hvcurveto
          -4 -55 rmoveto
          -46 8 -73 2 -42 0 rrcurveto
          hintmask 1111101110000000
          -65 -61 7 41 49 106 5 62 hvcurveto
          37 0 39 -2 34 -3 -14 -15 -6 -17 0 -19 0 -21 10 -24 19 -11 rrcurveto
          endchar
        </CharString>
        <CharString name="si_Dda">
          77 0 88 199 28 75 42 124 26 hstem
          46 44 209 28 230 41 vstem
          76 374 rmoveto
          -22 17 -13 20 vhcurveto
          15 0 13 4 11 19 14 25 15 3 17 0 29 0 31 -32 2 -43 rrcurveto
          -245 -28 110 hlineto
          -54 -23 -25 -52 0 -50 0 -81 52 -81 101 0 51 0 33 22 30 37 22 -30 28 -29 65 0 rrcurveto
          119 51 126 132 186 -119 138 -175 hvcurveto
          -94 0 -83 -36 -54 -78 rrcurveto
          34 hlineto
          47 56 64 32 80 0 rrcurveto
          158 101 -128 -151 -102 -45 -87 -91 -53 -42 25 43 hvcurveto
          31 -27 -31 vlineto
          -45 -46 -23 -54 -68 -41 42 53 49 38 55 93 vhcurveto
          74 hlineto
          -1 88 -46 57 -83 0 rrcurveto
          -42 -47 -17 -41 hvcurveto
          endchar
        </CharString>
        <CharString name="si_E">
          25 0 88 188 26 57 38 -4 38 hstemhm
          45 44 174 33 -13 31 195 36 hintmask 11011101
          509 275 rmoveto
          -111 -77 -76 -153 -89 -101 21 78 vhcurveto
          0 25 12 23 24 15 25 16 36 10 44 0 rrcurveto
          65 hlineto
          0 4 0 7 0 3 rrcurveto
          73 -38 69 -88 vhcurveto
          hintmask 11101101
          -55 -50 -26 -47 -26 20 -11 17 hvcurveto
          23 0 10 13 7 20 rrcurveto
          hintmask 11011101
          5 16 13 22 35 0 37 0 32 -37 0 -48 0 -2 0 -2 -1 -2 rrcurveto
          -11 hlineto
          -37 0 -41 -12 -34 -12 -26 -5 -19 -11 -16 -14 -23 -20 -10 -32 0 -31 rrcurveto
          -119 110 -46 121 183 86 117 128 vhcurveto
          0 70 -13 48 -39 67 -36 62 -71 72 -61 33 rrcurveto
          hintmask 11101011
          -27 -31 -15 -36 0 -50 0 -66 37 -55 63 0 43 0 30 20 15 32 rrcurveto
          22 -32 16 -47 0 -57 rrcurveto
          -380 1 rmoveto
          162 0 -31 26 -244 0 0 -33 rlineto
          16 3 26 3 71 1 rrcurveto
          322 164 rmoveto
          -9 -32 -28 -11 -24 0 -54 0 -22 39 0 49 0 35 9 22 11 17 38 -28 49 -46 30 -45 rrcurveto
          endchar
        </CharString>
        <CharString name="si_Ga">
          66 -2 90 -89 26 192 25 116 73 -23 24 hstemhm
          34 38 144 26 70 40 182 52 hintmask 1010111110000000
          233 407 rmoveto
          24 vlineto
          -4 0 -5 1 -4 0 rrcurveto
          -111 -75 -102 -123 -111 63 -98 111 87 57 58 80 66 -33 39 -49 hvcurveto
          -7 0 -8 -1 -7 -4 rrcurveto
          hintmask 0111011110000000
          14 69 47 53 75 0 rrcurveto
          94 56 -73 -94 -92 -65 -74 -107 hvcurveto
          -8 0 -8 1 -8 1 rrcurveto
          -26 vlineto
          11 -1 10 -1 10 0 rrcurveto
          131 86 96 122 115 -64 100 -112 hvcurveto
          -122 0 -62 -115 -10 -125 rrcurveto
          26 hlineto
          0 3 1 9 1 6 6 4 9 3 9 0 rrcurveto
          24 20 -16 -35 hvcurveto
          hintmask 1010111110000000
          -51 -47 -27 -59 -85 -49 66 82 97 64 75 86 vhcurveto
          3 0 5 0 3 -1 rrcurveto
          endchar
        </CharString>
        <CharString name="si_Gha">
          107 -1 89 92 29 66 33 -26 26 -18 26 77 38 hstemhm
          51 42 149 30 8 33 227 39 10 39 hintmask 1101011111100000
          187 432 rmoveto
          -55 -50 -26 -47 -26 20 -11 17 hvcurveto
          23 0 10 13 7 20 6 17 12 21 35 0 38 0 32 -36 -2 -49 rrcurveto
          -11 hlineto
          -37 0 -54 -11 -34 -13 -52 -16 -41 -42 0 -72 0 -78 57 -77 91 0 19 0 28 3 31 9 3 6 1 14 0 7 0 40 -12 4 3 39 rrcurveto
          2 41 29 18 29 0 35 0 22 -26 2 -31 3 -35 -16 -17 0 -36 0 -7 1 -11 3 -5 31 -8 27 -4 24 0 92 0 72 58 0 108 rrcurveto
          0 55 -31 53 -47 23 16 10 13 22 0 21 0 57 -48 25 -54 0 -79 0 -49 -61 4 -90 rrcurveto
          hintmask 1100111111100000
          33 7 26 2 36 0 rrcurveto
          92 49 -41 -64 -61 -53 -36 -62 hvcurveto
          -31 0 -19 4 -5 5 1 9 0 14 -1 8 -4 62 -48 19 -35 0 -39 0 -47 -21 -4 -65 0 -8 0 -11 2 -10 -5 -4 -16 -2 -16 0 rrcurveto
          -62 -52 37 56 hvcurveto
          0 42 28 29 34 16 rrcurveto
          hintmask 1101011111100000
          20 10 22 4 20 0 rrcurveto
          96 hlineto
          2 82 -35 68 -93 0 rrcurveto
          hintmask 1110011111100000
          -182 -124 rmoveto
          -33 vlineto
          hintmask 1101011111100000
          16 3 55 4 71 0 rrcurveto
          162 0 -31 26 rlineto
          105 2 rmoveto
          4 55 31 27 52 0 35 0 35 -14 0 -33 0 -13 -5 -14 -11 -12 rrcurveto
          hintmask 1100111111100000
          -15 6 -30 4 -34 0 -26 0 -23 -2 -13 -4 rrcurveto
          endchar
        </CharString>
        <CharString name="si_Ha">
          83 -1 28 -28 89 124 25 42 24 48 81 -50 50 hstemhm
          33 43 130 33 0 23 65 39 187 52 hintmask 0111011011100000
          262 182 rmoveto
          6 21 14 9 13 0 rrcurveto
          18 14 -15 -26 -59 -61 -23 -58 -68 -64 30 65 61 49 34 80 hvcurveto
          11 0 11 0 12 -2 -1 84 -41 71 -79 0 rrcurveto
          -56 -29 -38 -30 -24 14 -13 20 hvcurveto
          19 0 14 11 7 17 6 17 11 10 22 0 rrcurveto
          hintmask 0111101101100000
          36 24 -38 -41 hvcurveto
          -4 0 -4 0 -4 0 rrcurveto
          -94 -67 -57 -91 -94 70 -62 98 95 70 54 92 54 -28 38 -38 hvcurveto
          -9 0 -10 -2 -10 -6 22 80 45 42 75 0 rrcurveto
          91 49 -73 -85 hvcurveto
          hintmask 1011101011100000
          -100 -66 -66 -99 vhcurveto
          -12 0 -12 1 -12 2 rrcurveto
          -28 vlineto
          14 -2 14 -1 13 0 rrcurveto
          123 89 93 119 118 -63 103 -112 hvcurveto
          -101 0 -81 -115 -9 -125 rrcurveto
          endchar
        </CharString>
        <CharString name="si_I">
          23 -160 23 122 28 41 27 24 28 98 29 87 85 hstemhm
          33 47 93 63 -29 31 100 39 -4 66 61 44 hintmask 1111111100110000
          273 14 rmoveto
          -11 0 -1 -1 -12 -1 rrcurveto
          -28 vlineto
          10 1 0 0 8 0 rrcurveto
          67 39 -26 -42 -38 -34 -16 -39 -56 -12 23 20 hvcurveto
          0 12 4 11 0 6 rrcurveto
          17 -14 10 -15 -17 -17 -12 -26 -63 63 -21 62 66 75 26 59 vhcurveto
          0 39 -22 24 -33 6 89 16 71 82 0 106 rrcurveto
          155 -100 79 -160 -143 -108 -75 -136 -104 80 -63 107 vhcurveto
          hintmask 1111111011010000
          90 67 36 80 52 -33 38 -58 -45 -34 -35 -46 -40 36 -34 42 hvcurveto
          14 0 19 3 15 12 -16 -24 -41 -15 -53 0 rrcurveto
          -85 -59 52 66 99 94 49 112 122 93 -68 -106 -101 -77 -60 -99 hvcurveto
          -17 0 -17 2 -17 0 rrcurveto
          15 217 rmoveto
          27 23 -21 -28 -27 -22 -22 -28 -27 -23 21 28 27 22 22 28 hvcurveto
          endchar
        </CharString>
        <CharString name="si_Ii">
          -42 0 88 315 27 -17 24 36 27 6 26 44 26 hstemhm
          31 37 50 27 76 27 135 27 15 57 4 27 hintmask 1101111111110000
          410 468 rmoveto
          21 17 17 21 21 17 -17 -21 -21 -17 -17 -21 vhcurveto
          -21 -17 17 21 hvcurveto
          -27 hmoveto
          -107 callsubr
          -238 70 rmoveto
          21 17 17 21 21 17 -17 -21 -21 -17 -17 -21 -21 -17 17 21 vhcurveto
          -27 hmoveto
          -107 callsubr
          52 -116 rmoveto
          -75 -41 -64 -58 0 -110 rrcurveto
          -124 93 -89 124 136 98 102 123 vhcurveto
          0 56 -17 45 -35 40 rrcurveto
          hintmask 1011111111110000
          -42 47 -55 24 -71 0 -9 0 -1 0 -5 -1 44 26 36 24 33 27 48 41 23 28 0 20 0 13 -8 9 -19 0 -20 0 -13 -14 -13 -19 rrcurveto
          -15 -22 -15 -28 -24 -24 -50 -47 -31 -20 -53 -28 rrcurveto
          -102 -181 rmoveto
          102 103 70 92 91 71 -54 -97 -104 -84 -70 -105 -108 -60 69 84 vhcurveto
          endchar
        </CharString>
        <CharString name="si_Ka">
          176 -1 89 -89 28 46 42 173 26 48 72 -43 42 hstemhm
          21 27 -19 78 88 30 56 26 160 48 125 61 hintmask 0011010111110000
          107 323 rmoveto
          7 17 -3 1 7 22 6 20 20 8 14 0 25 0 12 -22 0 -25 0 -6 -1 -9 -1 -5 -30 -27 -28 -29 -26 -36 rrcurveto
          hintmask 0011001011110000
          -35 -48 -45 -93 -8 -69 rrcurveto
          27 -11 rlineto
          3 40 14 22 22 0 rrcurveto
          hintmask 1001100111110000
          33 0 -3 -74 87 0 42 0 33 23 17 41 21 -43 34 -21 46 0 rrcurveto
          85 33 69 58 123 -90 64 -120 hvcurveto
          -27 0 -34 -1 -30 -8 42 38 60 20 71 0 rrcurveto
          134 119 -83 -135 hvcurveto
          hintmask 0101100111110000
          -66 -37 -51 -50 vhcurveto
          -21 0 -17 5 -9 7 rrcurveto
          -2 -27 rlineto
          18 -12 18 -1 10 0 rrcurveto
          108 43 111 82 136 -98 106 -150 hvcurveto
          -87 0 -82 -33 -59 -55 rrcurveto
          4 vlineto
          hintmask 0011010111110000
          49 -37 34 -52 -57 -50 -39 -54 -12 6 -31 35 vhcurveto
          15 0 15 8 7 18 rrcurveto
          72 -54 rmoveto
          24 12 41 7 57 0 rrcurveto
          102 64 -45 -73 hvcurveto
          hintmask 1001000011110000
          -38 -22 -44 -57 -52 -29 20 65 vhcurveto
          1 -26 -1 vlineto
          -60 -31 -25 -47 vhcurveto
          hintmask 0011000011110000
          -53 0 -21 27 -30 0 -8 0 -8 -3 -8 -5 11 32 15 33 29 40 15 23 16 19 18 15 rrcurveto
          endchar
        </CharString>
        <CharString name="si_Kha">
          60 -1 30 -29 84 -30 73 -11 30 164 86 179 26 hstemhm
          32 32 116 31 152 50 129 42 hintmask 1001111111000000
          93 72 rmoveto
          24 19 20 24 24 20 -20 -24 -24 -20 -19 -24 vhcurveto
          -24 -19 19 24 hvcurveto
          -21 30 rmoveto
          -6 17 -2 22 0 12 rrcurveto
          107 90 50 82 92 35 -37 -48 vhcurveto
          0 -37 -24 -42 -52 -62 -41 -50 -29 -39 -14 -13 rrcurveto
          37 -3 rlineto
          hintmask 0010111111000000
          42 55 26 20 13 0 rrcurveto
          hintmask 0100111111000000
          27 0 4 -54 64 0 rrcurveto
          108 60 150 136 187 -120 128 -166 hvcurveto
          -112 0 -77 -48 -45 -83 rrcurveto
          34 hlineto
          41 72 66 33 89 0 rrcurveto
          151 97 -108 -162 -103 -41 -118 -64 hvcurveto
          hintmask 1010111111000000
          -43 0 -2 43 -29 0 -2 0 -3 -1 -4 0 32 32 27 43 0 57 rrcurveto
          85 -80 53 -93 -116 -92 -74 -139 -75 24 -109 85 40 30 38 36 vhcurveto
          hintmask 0001111111000000
          44 -31 29 -44 vhcurveto
          -28 0 -28 -17 -8 -27 rrcurveto
          endchar
        </CharString>
        <CharString name="si_Na">
          236 -1 28 -28 89 195 25 54 70 -48 47 hstemhm
          55 81 87 30 194 51 196 66 hintmask 1011011110000000
          267 295 rmoveto
          41 46 61 21 67 0 rrcurveto
          126 132 -77 -142 -76 -37 -40 -49 hvcurveto
          -17 0 -18 6 -18 11 rrcurveto
          -13 -23 rlineto
          22 -15 24 -7 25 0 rrcurveto
          74 73 64 120 152 -114 98 -140 hvcurveto
          -105 0 -98 -58 -50 -58 0 1 0 1 0 1 rrcurveto
          hintmask 0110111110000000
          67 -34 44 -65 -65 -34 -47 -39 -28 18 -16 22 vhcurveto
          31 0 7 26 3 18 3 21 10 18 27 0 32 0 15 -28 0 -34 0 -13 -2 -13 -7 -11 -82 -77 -5 -84 -63 0 -12 0 -13 4 -13 6 rrcurveto
          30 -90 92 -45 128 0 rrcurveto
          122 100 54 116 80 -69 59 -84 hvcurveto
          -28 0 -25 -3 -25 -10 rrcurveto
          70 -12 rmoveto
          61 49 -36 -52 -74 -73 -33 -110 hvcurveto
          -58 0 -51 8 -42 17 71 43 -17 127 170 0 rrcurveto
          endchar
        </CharString>
        <CharString name="si_Os">
          66 0 87 137 30 34 28 93 25 120 24 hstem
          30 34 108 28 44 30 19 25 71 30 131 40 vstem
          274 362 rmoveto
          26 21 21 26 26 21 -21 -26 -26 -21 -21 -26 -26 -21 21 26 vhcurveto
          114 -31 rmoveto
          1 -2 0 -2 0 -1 rrcurveto
          -45 -41 -28 -53 -55 -40 31 53 vhcurveto
          0 3 -1 17 0 14 0 30 -8 14 -10 8 -7 5 -7 4 -19 0 rrcurveto
          -74 -44 -100 -108 -97 48 -127 118 hvcurveto
          50 0 37 15 22 40 16 -39 44 -16 41 0 rrcurveto
          137 47 127 127 177 -104 147 -184 hvcurveto
          -127 0 -68 -47 -45 -65 rrcurveto
          31 hlineto
          46 58 60 30 99 0 rrcurveto
          160 92 -120 -141 -99 -46 -106 -95 -57 -35 26 41 hvcurveto
          22 -24 -21 vlineto
          -33 -19 -36 -74 -83 -53 73 100 68 30 77 51 23 4 -13 -20 vhcurveto
          0 -9 0 -19 0 -5 rrcurveto
          -73 53 -42 71 71 52 43 63 59 -37 45 -60 -46 -32 -32 -42 -37 27 -35 47 vhcurveto
          42 0 22 29 6 14 rrcurveto
          endchar
        </CharString>
        <CharString name="si_Pa">
          46 0 88 213 25 69 39 -29 28 hstemhm
          31 44 -19 84 365 36 -7 40 hintmask 11100100
          158 434 rmoveto
          -55 -47 -25 -43 -27 21 -11 18 hvcurveto
          27 0 13 17 4 15 6 19 12 16 32 0 34 0 26 -25 -5 -45 -13 1 -11 1 -13 0 rrcurveto
          hintmask 11011001
          -108 -68 -52 -91 -138 128 -46 148 141 126 56 130 hvcurveto
          0 55 -20 38 -40 24 rrcurveto
          hintmask 11010010
          19 14 8 17 0 20 0 39 -36 40 -66 0 -85 0 -45 -50 15 -86 23 4 24 2 23 0 rrcurveto
          hintmask 11101001
          78 62 -25 -66 -89 -123 -35 -104 -110 -122 32 88 69 65 24 77 hvcurveto
          1 0 35 -1 18 -2 rrcurveto
          17 87 -43 49 -87 0 rrcurveto
          330 -119 rmoveto
          -24 9 -28 4 -33 0 -16 0 -16 -1 -17 -2 rrcurveto
          hintmask 11010010
          -7 52 39 28 46 0 47 0 26 -25 0 -29 0 -13 -5 -12 -12 -11 rrcurveto
          endchar
        </CharString>
        <CharString name="si_Tta">
          33 -1 89 277 27 161 25 hstem
          32 42 441 42 vstem
          73 228 rmoveto
          88 77 49 84 vhcurveto
          32 0 28 -7 27 -13 rrcurveto
          30 vlineto
          -29 11 -33 5 -27 0 rrcurveto
          -106 -94 -68 -115 -127 101 -82 152 162 110 116 156 162 -111 144 -173 hvcurveto
          -96 0 -73 -38 -47 -69 rrcurveto
          34 hlineto
          42 54 62 29 80 0 rrcurveto
          141 99 -121 -130 -141 -101 -73 -137 -98 -106 42 98 hvcurveto
          endchar
        </CharString>
        <CharString name="si_U">
          81 -161 39 392 26 93 43 hstem
          32 97 444 30 vstem
          539 270 rmoveto
          0 2 0 2 0 2 rrcurveto
          94 -70 62 -93 -63 -46 -22 -45 -20 16 -18 24 vhcurveto
          25 0 11 15 7 12 14 23 20 12 25 0 51 0 43 -43 3 -50 rrcurveto
          -242 hlineto
          -143 -89 -86 -111 -161 145 -99 151 152 123 97 133 hvcurveto
          -30 hlineto
          -107 -102 -84 -118 -117 -107 94 140 94 58 64 124 vhcurveto
          endchar
        </CharString>
        <CharString name="si_Va">
          0 88 191 25 89 38 121 25 hstemhm
          33 43 -20 76 127 33 217 39 hintmask 11110111
          292 279 rmoveto
          0 4 0 4 0 3 rrcurveto
          86 -43 56 -88 -55 -50 -26 -47 -26 20 -11 17 vhcurveto
          23 0 10 14 6 19 6 16 9 22 42 0 37 0 33 -32 0 -53 0 -2 0 0 0 -2 rrcurveto
          -60 hlineto
          hintmask 11111011
          -101 -65 -54 -85 -119 113 -46 121 183 98 114 160 169 -112 134 -160 hvcurveto
          -98 0 -72 -37 -49 -70 rrcurveto
          33 hlineto
          44 54 63 28 79 0 rrcurveto
          134 99 -111 -137 -132 -86 -84 -153 -88 -106 21 79 59 54 32 74 hvcurveto
          endchar
        </CharString>
</ttFont>
